<svg width="590" height="170" viewBox="0 0 472 136" fill="none" xmlns="http://www.w3.org/2000/svg">
<path d="M181.302 112.229V171H163.813V112.229L96.7288 1.00024H115.656L173.156 96.4429C150.701 133.716 195.612 59.1702 173.156 96.4429L181.302 112.229C207.5 68.7912 155.104 155.666 181.302 112.229Z" fill="url(#paint0_linear)"/>
<path d="M386.894 171L348.56 116.357C344.248 116.843 339.776 117.086 335.144 117.086H312.623H290.102V171H272.373V1.00024H335.144C356.547 1.00024 373.317 6.18119 385.456 16.5431C397.595 26.905 403.665 41.1526 403.665 59.2859C403.665 72.562 400.311 83.8144 393.602 93.043C387.054 102.11 377.63 108.667 365.331 112.714L406.3 171H386.894ZM334.665 101.786C351.276 101.786 363.974 98.062 372.759 90.6144C381.543 83.1668 385.936 72.7239 385.936 59.2859C385.936 45.524 381.543 35.0002 372.759 27.7145C363.974 20.2669 351.276 16.5431 334.665 16.5431H290.102V101.786V117.086H312.623V101.786H334.665Z" fill="url(#paint1_linear)"/>
<path d="M550.688 125.586H457.249L437.124 171H418.676L495.343 1.00024H512.833L589.5 171H570.813L550.688 125.586ZM544.219 111.014L503.968 19.7002H486.91L445.729 111.014H463.718H503.968H544.219Z" fill="url(#paint2_linear)"/>
<path d="M181.302 112.229V171H163.813V112.229L96.7288 1.00024H115.656L173.156 96.4429C150.701 133.716 195.612 59.1702 173.156 96.4429L181.302 112.229C207.5 68.7912 155.104 155.666 181.302 112.229Z" fill="url(#paint3_linear)"/>
<path d="M190.823 96.4429L182.677 80.6573C205.132 43.3846 208.365 38.2727 230.821 1H248.39C222.193 44.4374 217.02 53.0056 190.823 96.4429Z" fill="url(#paint4_linear)"/>
<path d="M550.688 125.586H457.249L437.124 171H418.676L495.343 1.00024H512.833L589.5 171H570.813L550.688 125.586ZM544.219 111.014L503.968 19.7002H486.91L445.729 111.014H463.718H503.968H544.219Z" fill="url(#paint5_linear)"/>
<path d="M460.834 117.409L471.86 92.3949H454.126L492.459 7.39503H509.949L501.085 26.095L460.834 117.409Z" fill="url(#paint6_linear)"/>
<path d="M460.834 117.409L471.86 92.3949H454.126L492.459 7.39503H509.949L501.085 26.095L460.834 117.409Z" fill="url(#paint7_linear)"/>
<path d="M190.823 96.4429L182.677 80.6573C205.132 43.3846 208.365 38.2727 230.821 1H248.39C222.193 44.4374 217.02 53.0056 190.823 96.4429Z" fill="url(#paint8_linear)"/>
<path d="M0.500031 0.757263H18.2293V85.7573V134V149.507V155.214L10.0001 170.757H0.500061L0.500031 0.757263Z" fill="url(#paint9_linear)"/>
<path d="M10.0001 170.757L18.2293 155.214H112.146V170.757H93.1092H10.0001Z" fill="url(#paint10_linear)"/>
<path d="M10.0001 170.757L18.2293 155.214H112.146V170.757H93.1092H10.0001Z" fill="url(#paint11_linear)"/>
<defs>
<linearGradient id="paint0_linear" x1="0.499995" y1="86.5155" x2="589.5" y2="86.5154" gradientUnits="userSpaceOnUse">
<stop stop-color="#44B0FF"/>
<stop offset="1" stop-color="#AE01FF"/>
</linearGradient>
<linearGradient id="paint1_linear" x1="0.499995" y1="86.5155" x2="589.5" y2="86.5154" gradientUnits="userSpaceOnUse">
<stop stop-color="#44B0FF"/>
<stop offset="1" stop-color="#AE01FF"/>
</linearGradient>
<linearGradient id="paint2_linear" x1="0.499995" y1="86.5155" x2="589.5" y2="86.5154" gradientUnits="userSpaceOnUse">
<stop stop-color="#44B0FF"/>
<stop offset="1" stop-color="#AE01FF"/>
</linearGradient>
<linearGradient id="paint3_linear" x1="0.499995" y1="86.5155" x2="589.5" y2="86.5154" gradientUnits="userSpaceOnUse">
<stop stop-color="#44B0FF"/>
<stop offset="1" stop-color="#AE01FF"/>
</linearGradient>
<linearGradient id="paint4_linear" x1="0.499995" y1="86.5155" x2="589.5" y2="86.5154" gradientUnits="userSpaceOnUse">
<stop stop-color="#44B0FF"/>
<stop offset="1" stop-color="#AE01FF"/>
</linearGradient>
<linearGradient id="paint5_linear" x1="0.499995" y1="86.5155" x2="589.5" y2="86.5154" gradientUnits="userSpaceOnUse">
<stop stop-color="#44B0FF"/>
<stop offset="1" stop-color="#AE01FF"/>
</linearGradient>
<linearGradient id="paint6_linear" x1="0.499995" y1="86.5155" x2="589.5" y2="86.5154" gradientUnits="userSpaceOnUse">
<stop stop-color="#44B0FF"/>
<stop offset="1" stop-color="#AE01FF"/>
</linearGradient>
<linearGradient id="paint7_linear" x1="0.499995" y1="86.5155" x2="589.5" y2="86.5154" gradientUnits="userSpaceOnUse">
<stop stop-color="#44B0FF"/>
<stop offset="1" stop-color="#AE01FF"/>
</linearGradient>
<linearGradient id="paint8_linear" x1="0.499995" y1="86.5155" x2="589.5" y2="86.5154" gradientUnits="userSpaceOnUse">
<stop stop-color="#44B0FF"/>
<stop offset="1" stop-color="#AE01FF"/>
</linearGradient>
<linearGradient id="paint9_linear" x1="0.499995" y1="86.5155" x2="589.5" y2="86.5154" gradientUnits="userSpaceOnUse">
<stop stop-color="#44B0FF"/>
<stop offset="1" stop-color="#AE01FF"/>
</linearGradient>
<linearGradient id="paint10_linear" x1="0.499995" y1="86.5155" x2="589.5" y2="86.5154" gradientUnits="userSpaceOnUse">
<stop stop-color="#44B0FF"/>
<stop offset="1" stop-color="#AE01FF"/>
</linearGradient>
<linearGradient id="paint11_linear" x1="0.499995" y1="86.5155" x2="589.5" y2="86.5154" gradientUnits="userSpaceOnUse">
<stop stop-color="#44B0FF"/>
<stop offset="1" stop-color="#AE01FF"/>
</linearGradient>
</defs>
</svg>
